<?xml version="1.0" encoding="UTF-8"?><svg id="Layer_1" xmlns="http://www.w3.org/2000/svg" viewBox="0 0 360 360"><defs><style>.cls-1{fill:none;stroke:#425563;stroke-linecap:round;stroke-linejoin:round;stroke-width:8px;}.cls-2{fill:#daf3ef;}.cls-2,.cls-3{stroke-width:0px;}.cls-3{fill:#fff;}</style></defs><circle class="cls-3" cx="180" cy="180" r="180"/><circle class="cls-2" cx="249.7" cy="111.3" r="51.87"/><path class="cls-1" d="M179.06,180.17c.11-10.12.09-20.23,3.67-29.91,6.07-16.38,19.41-28.82,37.52-29.08h23.13"/><path class="cls-1" d="M179.06,175.21c-.11,10.12-.09,20.23-3.67,29.91-6.07,16.38-19.41,28.82-37.52,29.08h-2.55"/><polyline class="cls-1" points="221.21 143.36 243.38 121.18 221.21 99.01"/><circle class="cls-1" cx="122.98" cy="234.32" r="12.33"/><circle class="cls-1" cx="130.16" cy="137.41" r="19.51"/><polyline class="cls-1" points="200.95 244.58 217.79 227.74 200.95 210.9"/><polyline class="cls-1" points="234.63 210.9 217.79 227.74 234.63 244.58"/><path class="cls-1" d="M152.17,69.51c-41.49,10.07-74.13,42.7-84.2,84.2"/><path class="cls-1" d="M290.58,153.71c-10.07-41.49-42.7-74.13-84.2-84.2"/><path class="cls-1" d="M206.39,292.12c41.49-10.07,74.13-42.7,84.2-84.2"/><path class="cls-1" d="M67.98,207.92c10.07,41.49,42.7,74.13,84.2,84.2"/><line class="cls-1" x1="179.28" y1="74.16" x2="179.28" y2="46.29"/><line class="cls-1" x1="44.76" y1="180.81" x2="72.62" y2="180.81"/><line class="cls-1" x1="179.28" y1="287.47" x2="179.28" y2="315.33"/><line class="cls-1" x1="313.8" y1="180.81" x2="285.94" y2="180.81"/></svg>