<?xml version="1.0" encoding="UTF-8"?>
<svg xmlns="http://www.w3.org/2000/svg" id="Layer_1" data-name="Layer 1" viewBox="0 0 80.58 80.58">
  <defs>
    <style>.cls-1{fill:#ff8c2f;}</style>
  </defs>
  <title>icon-adaptable</title>
  <path class="cls-1" d="M72.72,27.81l-1.4,1.4,5.47,5.47H67.2v-19H13.38v19H3.79l5.47-5.47-1.4-1.4L0,35.67l7.86,7.86,1.4-1.4L3.79,36.66h9.59v19H34.27l-2.09,6.63a3.5,3.5,0,0,0,.31,3.33,5.29,5.29,0,0,0,4.45,2.19h6.82a5.31,5.31,0,0,0,4.42-2.14,3.54,3.54,0,0,0,.38-3.3l-1.94-6.71H67.2v-19h9.59l-5.47,5.47,1.4,1.4,7.86-7.86ZM15.36,17.62H65.22V34.68H61.57V19.78H19v14.9H15.36Zm44.23,19V49.58H21V36.66h6.53v-2H21V21.76h38.6V34.68H53.15v2ZM46.67,63l0,.1a1.49,1.49,0,0,1-.17,1.49,3.3,3.3,0,0,1-2.77,1.27H36.94a3.32,3.32,0,0,1-2.79-1.29A1.53,1.53,0,0,1,34,63.06l2.34-7.37h8.21Zm18.55-9.29H15.36V36.66H19v14.9H61.57V36.66h3.65Z"></path>
</svg>
