<?xml version="1.0" encoding="UTF-8"?>
<svg xmlns="http://www.w3.org/2000/svg" id="Layer_1" data-name="Layer 1" viewBox="0 0 80.58 80.58">
  <defs>
    <style>.cls-1{fill:#ff8c2f;}</style>
  </defs>
  <title>icon-expertise</title>
  <path class="cls-1" d="M76.93,42.77a6,6,0,0,0-2.13-4.7A7.86,7.86,0,0,0,75,36.2a6.59,6.59,0,0,0-8.35-6.38A28.2,28.2,0,0,0,49.54,14.91a6.27,6.27,0,0,0-2.08-3.83,7.78,7.78,0,0,0,.24-1.86,6.62,6.62,0,0,0-13.24,0,8.49,8.49,0,0,0,.24,1.87,6.15,6.15,0,0,0-2.07,3.82A28.2,28.2,0,0,0,15.48,29.82a6.7,6.7,0,0,0-1.74-.24A6.63,6.63,0,0,0,7.12,36.2a8.41,8.41,0,0,0,.24,1.87,6.06,6.06,0,0,0-2.12,4.7v6.84h8.57A28.25,28.25,0,0,0,32.87,69.06,6.24,6.24,0,0,0,32.58,71v6.85h17V71a6.24,6.24,0,0,0-.29-1.94A28.25,28.25,0,0,0,68.36,49.61h8.57ZM73,36.2c0,2.78-2.28,6.51-4.62,6.51S63.8,39,63.8,36.2a4.62,4.62,0,0,1,9.24,0Zm-8.18-5.57A6.63,6.63,0,0,0,61.8,36.2,8.41,8.41,0,0,0,62,38.07a12.12,12.12,0,0,0-1.13,1.33H42.08V22.62h7.51V17A26.21,26.21,0,0,1,64.86,30.63ZM41.08,4.6A4.62,4.62,0,0,1,45.7,9.22c0,2.78-2.28,6.51-4.62,6.51S36.46,12,36.46,9.22A4.63,4.63,0,0,1,41.08,4.6Zm-6.5,11.18a3.63,3.63,0,0,1,.88-2.55c1.14,2.4,3.16,4.5,5.62,4.5s4.49-2.1,5.63-4.5a3.61,3.61,0,0,1,.88,2.55v4.84h-13Zm-2,1.24v5.6h7.5V39.4H21.26a10.49,10.49,0,0,0-1.14-1.33,7.86,7.86,0,0,0,.24-1.87,6.62,6.62,0,0,0-3.05-5.57A26.21,26.21,0,0,1,32.58,17ZM13.74,31.58a4.63,4.63,0,0,1,4.62,4.62c0,2.78-2.28,6.51-4.62,6.51S9.12,39,9.12,36.2A4.63,4.63,0,0,1,13.74,31.58ZM7.24,42.77a3.65,3.65,0,0,1,.88-2.56c1.14,2.41,3.16,4.5,5.62,4.5,2.26,0,4.14-1.75,5.31-3.89v.58h1a4.22,4.22,0,0,1,.2,1.37v4.84h-13Zm8.65,6.84h6.36V42.77a6.34,6.34,0,0,0-.14-1.37h18V57.91a6.62,6.62,0,0,0-5.62,6.53,8.41,8.41,0,0,0,.24,1.87,12.2,12.2,0,0,0-.85,1A26.28,26.28,0,0,1,15.89,49.61ZM41.08,71c-2.33,0-4.62-3.73-4.62-6.51a4.62,4.62,0,0,1,9.24,0C45.7,67.22,43.42,71,41.08,71Zm6.51,4.9h-13V71a3.63,3.63,0,0,1,.88-2.55c1.14,2.41,3.16,4.5,5.62,4.5s4.49-2.1,5.63-4.5A3.63,3.63,0,0,1,47.59,71Zm.73-8.58a12.39,12.39,0,0,0-.86-1,7.86,7.86,0,0,0,.24-1.87,6.61,6.61,0,0,0-5.62-6.53V41.4h18a7.08,7.08,0,0,0-.13,1.37v6.84h6.36A26.28,26.28,0,0,1,48.32,67.27ZM74.93,47.61h-13V42.77a4.22,4.22,0,0,1,.2-1.37h1v-.57c1.17,2.13,3.05,3.88,5.3,3.88,2.47,0,4.49-2.09,5.63-4.5a3.64,3.64,0,0,1,.88,2.56Z"></path>
</svg>
