<?xml version="1.0" encoding="UTF-8"?>
<svg xmlns="http://www.w3.org/2000/svg" id="Layer_1" data-name="Layer 1" viewBox="0 0 80.58 80.58">
  <defs>
    <style>.cls-1{fill:#ff8c2f;}</style>
  </defs>
  <title>icon-sustainability</title>
  <polygon class="cls-1" points="4.52 4.4 2.52 4.4 2.52 77.66 75.78 77.66 75.78 75.66 4.52 75.66 4.52 4.4"></polygon>
  <path class="cls-1" d="M17.2,61.87a6,6,0,0,0,4.14-10.44l7-10.56a6,6,0,0,0,5.87-.22l5.6,6.4a6,6,0,1,0,10.78,3.73A5.92,5.92,0,0,0,50,48.1l4.56-3.47a6,6,0,1,0,7-9.56l7.9-19.72a6.14,6.14,0,0,0,1.29.14,6.08,6.08,0,1,0-3.14-.89l-8,19.92q-.3,0-.63,0A6,6,0,0,0,53.45,43l-4.63,3.53a6,6,0,0,0-7.49-.78l-5.56-6.35a6,6,0,1,0-9,.33L19.68,50.32A6,6,0,1,0,17.2,61.87ZM70.74,5.4a4,4,0,1,1-4,4A4.05,4.05,0,0,1,70.74,5.4ZM59,36.49a4,4,0,1,1-4,4A4.05,4.05,0,0,1,59,36.49ZM48.63,50.78a4,4,0,1,1-4-4A4.05,4.05,0,0,1,48.63,50.78ZM31.12,31.45a4,4,0,1,1-4,4A4,4,0,0,1,31.12,31.45ZM17.2,51.78a4,4,0,1,1-4,4A4.06,4.06,0,0,1,17.2,51.78Z"></path>
</svg>
