<?xml version="1.0" encoding="UTF-8"?>
<svg xmlns="http://www.w3.org/2000/svg" id="Layer_1" data-name="Layer 1" viewBox="0 0 80.58 80.58">
  <defs>
    <style>.cls-1{fill:#ff8c2f;}</style>
  </defs>
  <title>icon-comprehensive</title>
  <path class="cls-1" d="M40.29,0A40.29,40.29,0,1,0,80.58,40.29,40.33,40.33,0,0,0,40.29,0Zm0,78.58A38.29,38.29,0,1,1,78.58,40.29,38.34,38.34,0,0,1,40.29,78.58Z"></path>
  <path class="cls-1" d="M40.29,5.1A35.19,35.19,0,1,0,75.48,40.29,35.22,35.22,0,0,0,40.29,5.1Zm0,68.38A33.19,33.19,0,1,1,73.48,40.29,33.23,33.23,0,0,1,40.29,73.48Z"></path>
  <path class="cls-1" d="M61.68,33.71A6.55,6.55,0,0,0,57.84,35L45.62,22.74a6.58,6.58,0,1,0-10.63,0L22.78,35a6.58,6.58,0,1,0,0,10.6L35,57.8a6.58,6.58,0,1,0,10.63,0L57.84,45.62a6.58,6.58,0,1,0,3.84-11.91ZM41.29,55.19V41.29h13.9a6.48,6.48,0,0,0,1.22,2.93L44.22,56.41A6.48,6.48,0,0,0,41.29,55.19ZM36.4,56.38,24.2,44.18a6.56,6.56,0,0,0,1.19-2.89h13.9v13.9A6.56,6.56,0,0,0,36.4,56.38Zm2.89-31v13.9H25.39a6.46,6.46,0,0,0-1.2-2.89L36.4,24.19A6.46,6.46,0,0,0,39.29,25.39Zm4.93-1.23,12.2,12.2a6.39,6.39,0,0,0-1.23,2.93H41.29V25.39A6.49,6.49,0,0,0,44.22,24.16Zm-3.93-9.85a4.59,4.59,0,1,1-4.58,4.58A4.59,4.59,0,0,1,40.29,14.31ZM18.9,44.87a4.58,4.58,0,1,1,4.58-4.58A4.59,4.59,0,0,1,18.9,44.87Zm21.39,21.4a4.59,4.59,0,1,1,4.58-4.59A4.59,4.59,0,0,1,40.29,66.27Zm21.39-21.4a4.58,4.58,0,1,1,4.59-4.58A4.59,4.59,0,0,1,61.68,44.87Z"></path>
</svg>
