<?xml version="1.0" encoding="UTF-8"?>
<svg xmlns="http://www.w3.org/2000/svg" id="Layer_1" data-name="Layer 1" viewBox="0 0 80.58 80.58">
  <defs>
    <style>.cls-1{fill:#ff8c2f;}</style>
  </defs>
  <title>icon-connection</title>
  <path class="cls-1" d="M59.06,12.61A13.21,13.21,0,0,0,45.92,24.8H34.66a13.18,13.18,0,1,0-6.9,12.62l5.6,9.74a13.19,13.19,0,1,0,14.55,0l5.47-9.51a13.18,13.18,0,1,0,5.68-25.08ZM10.33,25.8A11.19,11.19,0,1,1,21.52,37,11.2,11.2,0,0,1,10.33,25.8ZM51.79,58.16A11.19,11.19,0,1,1,40.6,47,11.2,11.2,0,0,1,51.79,58.16ZM46.16,46.22a13.07,13.07,0,0,0-11,0l-5.68-9.87a13.16,13.16,0,0,0,5.23-9.52H45.92a13.19,13.19,0,0,0,5.72,9.9ZM59.06,37A11.19,11.19,0,1,1,70.25,25.8,11.2,11.2,0,0,1,59.06,37Z"></path>
</svg>
